<svg xmlns="http://www.w3.org/2000/svg" viewBox="0 0 526.82 167.56"><defs><style>.cls-1{fill:#fff;}.cls-2{fill:#00b5d9;}</style></defs><g id="Layer_2" data-name="Layer 2"><g id="Layer_1-2" data-name="Layer 1"><path class="cls-1" d="M36.8,44.38H18.34l-2.81,8.49H.32L19.3.81H36l18.9,52.06H39.6ZM33.18,33.3,27.57,16.47,22,33.3Z"/><path class="cls-1" d="M71,41.8H87.21V52.87H56.56V.81H71Z"/><path class="cls-1" d="M105.08,41.8h16.17V52.87H90.6V.81h14.48Z"/><path class="cls-1" d="M159.43,44.38H141l-2.81,8.49H123l19-52.06h16.68l18.91,52.06H162.23ZM155.81,33.3,150.2,16.47,144.66,33.3Z"/><path class="cls-1" d="M219.69,30.68a12.79,12.79,0,0,1,2.7,8q0,6.64-4.58,10.41T205,52.87H179.19V.81h25c5.31,0,9.49,1.18,12.51,3.55s4.55,5.68,4.55,10a12.07,12.07,0,0,1-2.4,7.64,12,12,0,0,1-6.39,4.17A12.31,12.31,0,0,1,219.69,30.68Zm-26-9.19H201c3.64,0,5.47-1.5,5.47-4.51s-1.83-4.65-5.47-4.65h-7.31Zm13.88,15.14A4.54,4.54,0,0,0,206.1,33,6,6,0,0,0,202,31.75h-8.35v9.46h8.42Q207.54,41.21,207.54,36.63Z"/><path class="cls-1" d="M235.83,50a25.53,25.53,0,0,1-9.71-9.53,26.63,26.63,0,0,1-3.59-13.77,26.63,26.63,0,0,1,3.59-13.77,25.15,25.15,0,0,1,9.71-9.49,28.32,28.32,0,0,1,26.91,0,25,25,0,0,1,9.64,9.49,26.9,26.9,0,0,1,3.55,13.77,26.9,26.9,0,0,1-3.55,13.77A25.36,25.36,0,0,1,262.71,50a28,28,0,0,1-26.88,0ZM258,36.33q3.21-3.61,3.21-9.67,0-6.21-3.21-9.79a12.53,12.53,0,0,0-17.54,0q-3.18,3.59-3.18,9.79t3.18,9.71a12.48,12.48,0,0,0,17.54,0Z"/><path class="cls-1" d="M294,.81V31a9.71,9.71,0,0,0,2,6.49q2,2.3,5.95,2.29a7.57,7.57,0,0,0,6-2.32,9.53,9.53,0,0,0,2-6.46V.81h14.47V31a23.37,23.37,0,0,1-3,12.22,19.22,19.22,0,0,1-8.23,7.6,25.91,25.91,0,0,1-11.56,2.55,24.51,24.51,0,0,1-11.33-2.55,18.48,18.48,0,0,1-7.83-7.57A24.55,24.55,0,0,1,279.56,31V.81Z"/><path class="cls-1" d="M369.72.81V12.33H355.84V52.87H341.37V12.33H327.63V.81Z"/><path class="cls-1" d="M387.59,41.8h16.18V52.87H373.12V.81h14.47Z"/><path class="cls-1" d="M441.94,44.38H423.48l-2.8,8.49H405.46l19-52.06h16.69L460,52.87H444.75ZM438.32,33.3l-5.61-16.83L427.17,33.3Z"/><path class="cls-1" d="M526.5.81,513.72,52.87h-17.8L488.76,21l-7.31,31.9h-17.8L451,.81h15.65l6.06,35.6L480.93.81h15.88l8,35.3,6-35.3Z"/><path class="cls-2" d="M41.48,89l-2.82,16.5H70.4l-3.81,21H34.85L31.6,144.56h36l-3.81,22H0L17.64,67.11H81.27L77.46,89Z"/><path class="cls-2" d="M116.54,67.11l9.87,71.67,35.13-71.67H191l-51.92,99.46H103.84L87.05,67.11Z"/><path class="cls-2" d="M222.77,89,220,105.48H251.7l-3.81,21H216.14l-3.24,18.06h36l-3.81,22H181.3l17.63-99.46h63.63L258.75,89Z"/><path class="cls-2" d="M344.53,166.57H316.74L289.93,111l-9.88,55.58H252.26L269.9,67.11h27.65L324.5,123.4l9.87-56.29H362Z"/><path class="cls-2" d="M449.22,67.11l-4,22H418.89L405.2,166.57H377.41l13.68-77.45H364.85l3.95-22Z"/><path class="cls-2" d="M454.65,160.44q-10.51-7.12-10.51-20.81c0-.76.09-2.07.28-4h29.21c-.29,3.2.37,5.7,2,7.48s4,2.68,7.34,2.68A10.76,10.76,0,0,0,489.5,144a6.12,6.12,0,0,0,2.47-5.22,7.66,7.66,0,0,0-3.6-6.49,66.35,66.35,0,0,0-11.64-5.93,115.61,115.61,0,0,1-13.26-6.42,29.07,29.07,0,0,1-9-8.32q-3.81-5.3-3.81-13.19a30.52,30.52,0,0,1,5.08-17.71,31.8,31.8,0,0,1,14.18-11.29,52.72,52.72,0,0,1,20.81-3.88,49.64,49.64,0,0,1,18.76,3.32,29,29,0,0,1,12.77,9.52,24,24,0,0,1,4.59,14.68,27.9,27.9,0,0,1-.15,3.38H496.91a11,11,0,0,0,.14-2,6.75,6.75,0,0,0-2.12-5.29,8.33,8.33,0,0,0-5.78-1.91A9.39,9.39,0,0,0,483,89.19a6.46,6.46,0,0,0-2.33,5.29c0,2.44,1.2,4.54,3.6,6.28a71.09,71.09,0,0,0,11.22,6.13A126.7,126.7,0,0,1,509,114a31.13,31.13,0,0,1,9.1,8.82,23.19,23.19,0,0,1,3.81,13.54,28,28,0,0,1-4.8,16,31.83,31.83,0,0,1-13.68,11.15q-8.89,4-21,4Q465.17,167.56,454.65,160.44Z"/></g></g></svg>