<svg xmlns="http://www.w3.org/2000/svg" width="14.181" height="19.957" viewBox="0 0 14.181 19.957">
  <g id="Bin" transform="translate(-149.728 -126.046)">
    <path id="Path_1916" data-name="Path 1916" d="M165.038,129.627l-1.7-.284.04-1.487a1.043,1.043,0,0,0-.843-1.024l-4.623-.773a1.043,1.043,0,0,0-1.13.694l-.446,1.419-1.7-.284a1.758,1.758,0,0,0-2.024,1.444l-.1.578,13.869,2.32.1-.578A1.757,1.757,0,0,0,165.038,129.627Zm-2.936.232-4.844-.878.584-1.773,4.335.786Z" transform="translate(-2.597)" fill="#ec0b50"/>
    <path id="Path_1917" data-name="Path 1917" d="M162.719,217.248H150.868a1.122,1.122,0,0,0-1.135,1.243l1.021,11.238a1.4,1.4,0,0,0,1.361,1.242h9.356a1.4,1.4,0,0,0,1.361-1.242l1.021-11.238A1.121,1.121,0,0,0,162.719,217.248ZM154.3,228.476h-1.871l-.624-8.733H154.3Zm3.743,0h-2.5v-8.733h2.5Zm3.119,0h-1.871v-8.733h2.495Z" transform="translate(0 -84.967)" fill="#ec0b50"/>
  </g>
</svg>
