<svg xmlns="http://www.w3.org/2000/svg" width="35" height="27.941" viewBox="0 0 35 27.941">
  <path id="Stop-Video" d="M6.061,9.222H25.91V27.941H6.061a3.065,3.065,0,0,1-3.031-3.03v-12.8A2.937,2.937,0,0,1,6.061,9.222ZM20.948,0A4.492,4.492,0,0,0,16.4,4.546a4.58,4.58,0,0,0,4.546,4.534,4.495,4.495,0,0,0,4.545-4.534A4.415,4.415,0,0,0,20.948,0ZM9.925,0A4.491,4.491,0,0,0,5.38,4.546a4.545,4.545,0,0,0,9.09,0A4.492,4.492,0,0,0,9.925,0ZM.417,13.075h1.23c.285,0,.417.276.417.55v9.09c0,.274-.132.549-.417.549H.417c-.285,0-.417-.274-.417-.549v-9.09c0-.274.132-.55.417-.55Zm32.936-2.623-6.478,4.14V22.57l6.478,3.99H35V10.452Z" transform="translate(0)" fill="#fff" fill-rule="evenodd"/>
</svg>
