<svg width="18" height="18" xmlns="http://www.w3.org/2000/svg" xmlns:xlink="http://www.w3.org/1999/xlink" xmlns:svgjs="http://svgjs.com/svgjs" fill="#d1d1d1"><svg xmlns="http://www.w3.org/2000/svg" width="18" height="18" viewBox="0.5 0.5 17 17"><path paint-order="stroke fill markers" fill-rule="evenodd" d="M14.987 3.013C13.383 1.41 11.26.5 9 .5 4.33.5.5 4.322.5 9c0 4.68 3.82 8.5 8.5 8.5 4.659 0 8.5-3.805 8.5-8.5 0-2.261-.91-4.383-2.513-5.987zM9 15.474A6.466 6.466 0 0 1 2.525 9c0-1.395.439-2.72 1.245-3.815l9.045 9.034A6.35 6.35 0 0 1 9 15.474zm5.22-2.66L5.184 3.772A6.404 6.404 0 0 1 9 2.525 6.466 6.466 0 0 1 15.474 9c0 1.394-.438 2.72-1.255 3.815z"/></svg></svg>