<svg xmlns="http://www.w3.org/2000/svg" xmlns:xlink="http://www.w3.org/1999/xlink" width="32" height="32" viewBox="0 0 32 32"><defs><style>.a{fill:#fff;stroke:#707070;}.b{clip-path:url(#a);}.c{fill:#d93154;}</style><clipPath id="a"><rect class="a" width="32" height="32" transform="translate(0.389)"/></clipPath></defs><g class="b" transform="translate(-0.389)"><g transform="translate(0.113 0.114)"><path class="c" d="M19.386,15.887l11.88-11.88a1.741,1.741,0,0,0,0-2.457L30.225.509a1.742,1.742,0,0,0-2.458,0L15.887,12.388,4.007.509a1.741,1.741,0,0,0-2.457,0L.508,1.549a1.739,1.739,0,0,0,0,2.457l11.88,11.88L.508,27.767a1.743,1.743,0,0,0,0,2.458L1.55,31.265a1.741,1.741,0,0,0,2.457,0l11.88-11.88,11.88,11.88A1.724,1.724,0,0,0,29,31.773h0a1.724,1.724,0,0,0,1.229-.507l1.041-1.041a1.742,1.742,0,0,0,0-2.458Z" transform="translate(0 -0.002)"/></g></g></svg>