<svg xmlns="http://www.w3.org/2000/svg" width="29.707" height="33.819" viewBox="0 0 29.707 33.819">
  <path id="Raise-Hand" d="M28.994,15.508c-2.219-1.959-4.264.961-5.924,2.075.018-2.938.14-5.887.271-8.825.094-2.1.674-4.878-.33-6.821-1.119-2.167-4.139-.855-4.6,1.119a29.542,29.542,0,0,0-.334,4.329c-.14,1.729-.262,3.459-.42,5.187Q17.2,8.546,16.85,4.505C16.686,2.644,16.57.226,14.23.011c-3.027-.28-2.724,3.078-2.509,5.12.312,2.91.656,5.815.926,8.72-.646-2.435-1.354-4.876-1.9-7.335-.438-1.967-1.426-3.97-3.893-2.982C4.5,4.483,5.6,6.951,6.077,8.749c.655,2.435,1.539,4.809,1.959,7.3-.81-1.306-1.566-2.649-2.363-3.965-.6-1-1.248-2.405-2.379-2.917a2.538,2.538,0,0,0-2.986,1c-.728,1.119,0,2.53.488,3.59,2.263,4.914,3.747,10.187,5.587,15.266.407,1.119.826,2.246,1.285,3.351.153.365.308,1.065.67,1.292.481.309,1.44.038,1.959.01,3.008-.164,6.017-.347,9.024-.533.729-.045,3.034.207,3.476-.449a15.953,15.953,0,0,0,1.436-2.938c1.1-2.7,1.959-5.507,3.232-8.134.8-1.648,3.518-4.361,1.529-6.115Z" transform="translate(0 0.006)" fill="#fff"/>
</svg>
