<svg xmlns="http://www.w3.org/2000/svg" width="11.904" height="18.671" viewBox="0 0 11.904 18.671">
  <path id="Union_6" data-name="Union 6" d="M2.426,18.671V16.94H5.1V14.76A5.881,5.881,0,0,1,0,8.99v-1.3a.866.866,0,0,1,1.729,0v1.3a4.165,4.165,0,0,0,4.222,4.1,4.165,4.165,0,0,0,4.222-4.1v-1.3a.866.866,0,0,1,1.73,0v1.3A5.874,5.874,0,0,1,6.812,14.76V16.94H9.484v1.732Zm0-10.108V8.4H9.484v.159a3.529,3.529,0,0,1-7.059,0Zm0-1.049V3.529a3.529,3.529,0,1,1,7.059,0V7.513ZM7.27,5.85A.554.554,0,1,0,7.823,5.3.554.554,0,0,0,7.27,5.85Zm-1.846,0A.552.552,0,1,0,5.974,5.3.553.553,0,0,0,5.423,5.85Zm-1.85,0A.554.554,0,1,0,4.127,5.3.554.554,0,0,0,3.573,5.85Zm3.7-1.733a.554.554,0,1,0,.553-.553A.55.55,0,0,0,7.27,4.117Zm-1.846,0a.552.552,0,1,0,.551-.553A.55.55,0,0,0,5.423,4.117Zm-1.85,0a.554.554,0,1,0,.554-.553A.551.551,0,0,0,3.573,4.117Zm3.7-1.735a.554.554,0,1,0,.553-.553A.553.553,0,0,0,7.27,2.382Zm-1.846,0a.552.552,0,1,0,.551-.553A.552.552,0,0,0,5.423,2.382Zm-1.85,0a.554.554,0,1,0,.554-.553A.553.553,0,0,0,3.573,2.382Z" fill="#91278f"/>
</svg>
