<svg width="15" height="15" xmlns="http://www.w3.org/2000/svg" xmlns:xlink="http://www.w3.org/1999/xlink" xmlns:svgjs="http://svgjs.com/svgjs" viewBox="271 204 15 15"><svg width="10" height="15" xmlns="http://www.w3.org/2000/svg" xmlns:xlink="http://www.w3.org/1999/xlink" xmlns:svgjs="http://svgjs.com/svgjs" fill="#91278f" x="271" y="204"><svg xmlns="http://www.w3.org/2000/svg" xmlns:xlink="http://www.w3.org/1999/xlink" width="10" height="15" viewBox="0 0.5 9.334 14"><path paint-order="stroke fill markers" fill-rule="evenodd" d="M8.75 8.083a.583.583 0 0 0-.583.584V11a.584.584 0 0 1-.584.583h-1.75v-8.75c0-.498-.317-.943-.794-1.109l-.173-.058h2.717c.322 0 .584.263.584.584V4a.583.583 0 1 0 1.166 0V2.25c0-.965-.785-1.75-1.75-1.75h-6.27C1.29.5 1.27.51 1.25.513 1.222.51 1.195.5 1.167.5.523.5 0 1.023 0 1.666v10.5c0 .499.317.944.794 1.11l3.51 1.17c.12.036.238.054.363.054.643 0 1.166-.523 1.166-1.167v-.583h1.75c.965 0 1.75-.785 1.75-1.75V8.667a.583.583 0 0 0-.583-.584z"/></svg></svg><svg width="8" height="7" xmlns="http://www.w3.org/2000/svg" xmlns:xlink="http://www.w3.org/1999/xlink" xmlns:svgjs="http://svgjs.com/svgjs" viewBox="0.15 0 7.7 7" fill="#91278f" x="278" y="207"><svg xmlns="http://www.w3.org/2000/svg" width="8" height="7" viewBox="0.583 0.417 6.417 5.833"><path paint-order="stroke fill markers" fill-rule="evenodd" d="M6.829 2.92L4.496.589A.583.583 0 0 0 3.5 1v1.75H1.167a.584.584 0 0 0 0 1.167H3.5v1.75a.584.584 0 0 0 .996.412l2.333-2.333a.583.583 0 0 0 0-.825z"/></svg></svg></svg>