<svg xmlns="http://www.w3.org/2000/svg" width="22.314" height="35" viewBox="0 0 22.314 35">
  <path id="Union_6" data-name="Union 6" d="M4.547,35V31.754h5V27.668A11.024,11.024,0,0,1,0,16.852V14.416a1.624,1.624,0,0,1,3.242,0v2.436a7.807,7.807,0,0,0,7.915,7.682,7.807,7.807,0,0,0,7.915-7.682V14.416a1.624,1.624,0,0,1,3.242,0v2.436A11.009,11.009,0,0,1,12.77,27.668v4.086h5.01V35Zm0-18.949v-.3H17.779v.3a6.616,6.616,0,0,1-13.232,0Zm.006-1.967V6.615a6.616,6.616,0,1,1,13.232,0v7.469Zm9.075-3.119a1.038,1.038,0,1,0,1.037-1.037A1.038,1.038,0,0,0,13.628,10.965Zm-3.462,0A1.035,1.035,0,1,0,11.2,9.928,1.037,1.037,0,0,0,10.166,10.965Zm-3.468,0A1.038,1.038,0,1,0,7.736,9.928,1.038,1.038,0,0,0,6.7,10.965Zm6.93-3.248A1.038,1.038,0,1,0,14.665,6.68,1.033,1.033,0,0,0,13.628,7.717Zm-3.462,0A1.035,1.035,0,1,0,11.2,6.68,1.032,1.032,0,0,0,10.166,7.717Zm-3.468,0A1.038,1.038,0,1,0,7.736,6.68,1.033,1.033,0,0,0,6.7,7.717Zm6.93-3.252a1.038,1.038,0,1,0,1.037-1.039A1.036,1.036,0,0,0,13.628,4.465Zm-3.462,0A1.035,1.035,0,1,0,11.2,3.426,1.035,1.035,0,0,0,10.166,4.465Zm-3.468,0A1.038,1.038,0,1,0,7.736,3.426,1.036,1.036,0,0,0,6.7,4.465Z" transform="translate(0 0)" fill="#fff"/>
</svg>
