<svg xmlns="http://www.w3.org/2000/svg" width="15.645" height="17.811" viewBox="0 0 15.645 17.811"><defs><style>.a{fill:#91278f;}</style></defs><path class="a" d="M15.27,8.164c-1.169-1.032-2.245.506-3.12,1.093.01-1.548.074-3.1.143-4.648.049-1.105.355-2.569-.174-3.592-.59-1.141-2.18-.45-2.423.59a15.558,15.558,0,0,0-.176,2.28C9.446,4.8,9.382,5.708,9.3,6.618Q9.057,4.5,8.874,2.37C8.788,1.39,8.727.117,7.494,0,5.9-.144,6.06,1.624,6.173,2.7c.164,1.533.346,3.063.488,4.592-.34-1.282-.713-2.568-1-3.863-.231-1.036-.751-2.091-2.05-1.57-1.242.5-.663,1.8-.41,2.746.345,1.282.811,2.533,1.032,3.846-.427-.688-.825-1.395-1.245-2.088C2.669,5.837,2.33,5.1,1.735,4.826a1.336,1.336,0,0,0-1.573.526c-.383.59,0,1.332.257,1.891,1.192,2.588,1.973,5.365,2.942,8.04.214.59.435,1.183.676,1.765.08.192.162.561.353.68.253.163.758.02,1.032.005,1.584-.086,3.169-.183,4.752-.281.384-.024,1.6.109,1.83-.237a8.4,8.4,0,0,0,.756-1.548c.577-1.422,1.032-2.9,1.7-4.284.422-.868,1.853-2.3.805-3.22Z" transform="translate(0 0.006)"/></svg>