<svg xmlns="http://www.w3.org/2000/svg" width="34.996" height="31.266" viewBox="0 0 34.996 31.266">
  <path id="Union_7" data-name="Union 7" d="M2.249,31.266A2.254,2.254,0,0,1,0,29.01V12.486A2.254,2.254,0,0,1,2.249,10.23H15.927V20.336a1.569,1.569,0,0,0,3.137,0V10.23H32.746A2.254,2.254,0,0,1,35,12.486V29.01a2.254,2.254,0,0,1-2.25,2.256ZM15.927,10.23V5.367L13.979,7.32a1.6,1.6,0,0,1-2.238,0A1.632,1.632,0,0,1,11.294,6.2a1.572,1.572,0,0,1,.446-1.09L16.379.473A.512.512,0,0,1,16.64.281c.029-.035.063-.068.093-.068.063-.029.1-.059.162-.094A.291.291,0,0,1,17.052.09c.034-.035.1-.035.127-.068a2.123,2.123,0,0,1,.609,0c.063.033.1.033.162.068a.429.429,0,0,1,.15.029c.035.035.1.064.134.1a.167.167,0,0,1,.127.063.653.653,0,0,1,.256.191l4.6,4.639a1.5,1.5,0,0,1,0,2.2,1.563,1.563,0,0,1-2.209,0L19.063,5.367V10.23Z" transform="translate(0 0)" fill="#fff"/>
</svg>
