<?xml version="1.0" encoding="utf-8"?>
<!-- Generator: Adobe Illustrator 26.0.0, SVG Export Plug-In . SVG Version: 6.00 Build 0)  -->
<svg version="1.1" id="Layer_1" xmlns="http://www.w3.org/2000/svg" xmlns:xlink="http://www.w3.org/1999/xlink" x="0px" y="0px"
	 viewBox="0 0 332.2 47.2" style="enable-background:new 0 0 332.2 47.2;" xml:space="preserve">
<style type="text/css">
	.st0{fill:#FFFFFF;}
</style>
<g>
	<path class="st0" d="M193.1,39.2v-32h17.2v5.6H199v7.8h10.8v5.6H199v7.6h11.3v5.5H193.1z"/>
	<path class="st0" d="M221.8,39.2l-9.7-24h6.2l5.9,15.9l5.5-15.9h6.3l-9.7,24H221.8z"/>
	<path class="st0" d="M261.4,26.9c0,0.4,0,0.9,0,1.2c0,0.4-0.1,0.9-0.3,1.6h-18.6c0.2,0.7,0.5,1.4,0.9,2c0.4,0.6,0.9,1.1,1.5,1.6
		c0.6,0.4,1.2,0.8,1.9,1c0.7,0.3,1.4,0.4,2.1,0.4c2.3,0,4.1-1.1,5.4-3.2h6.3c-0.4,1.2-1,2.3-1.7,3.4s-1.6,1.9-2.7,2.7
		c-1,0.8-2.2,1.3-3.4,1.8c-1.2,0.4-2.5,0.6-3.8,0.6c-1.8,0-3.4-0.3-4.9-1s-2.9-1.6-4-2.7c-1.2-1.2-2.1-2.5-2.7-4.1
		c-0.7-1.6-1-3.2-1-5c0-1.8,0.3-3.5,1-5.1s1.6-3,2.7-4.1c1.2-1.2,2.5-2.1,4-2.8s3.2-1,4.9-1c1.7,0,3.3,0.3,4.8,1s2.8,1.6,4,2.7
		c1.1,1.1,2,2.5,2.7,4C261.1,23.5,261.4,25.2,261.4,26.9z M255.8,25.2c-0.4-1.7-1.2-3.1-2.4-4.1s-2.6-1.5-4.3-1.5s-3.1,0.5-4.4,1.5
		s-2.1,2.4-2.4,4.1H255.8z"/>
	<path class="st0" d="M265.5,39.2v-24h5.3v2.1c1-1,2-1.8,3.1-2.2c1-0.5,2.2-0.7,3.5-0.7c0.9,0,1.7,0.1,2.5,0.4s1.6,0.6,2.3,1
		c0.7,0.4,1.4,0.9,2,1.5c0.6,0.6,1.1,1.3,1.4,2c0.4,0.9,0.8,1.9,0.9,2.9c0.2,1,0.3,2.4,0.3,4.1v13H281V27.3c0-5.1-1.6-7.7-4.8-7.7
		c-0.9,0-1.8,0.3-2.6,0.8c-0.8,0.6-1.4,1.3-1.8,2.1c-0.1,0.3-0.2,0.6-0.3,0.9c-0.1,0.3-0.1,0.7-0.2,1.1c0,0.4-0.1,0.8-0.1,1.3
		c0,0.5,0,1.1,0,1.8v11.5H265.5z"/>
	<path class="st0" d="M292.5,39.2V20.4h-2.8v-5.2h2.8v-8h5.8v8h3.5v5.2h-3.5v18.8H292.5z"/>
	<path class="st0" d="M309.1,31.7c0.3,1.1,0.7,1.9,1.2,2.4c0.5,0.5,1.2,0.7,2,0.7c0.7,0,1.4-0.2,1.8-0.7s0.7-1,0.7-1.8
		c0-0.7-0.3-1.3-0.8-1.7c-0.6-0.4-1.6-0.9-3.2-1.4c-0.7-0.2-1.2-0.4-1.7-0.6c-0.4-0.2-0.8-0.3-1.1-0.5c-0.3-0.2-0.6-0.3-0.8-0.5
		c-0.3-0.2-0.5-0.4-0.9-0.7c-1.4-1.3-2.2-3-2.2-5.1c0-1,0.2-2,0.6-2.9c0.4-0.9,1-1.7,1.7-2.4c0.7-0.7,1.6-1.2,2.5-1.6
		c1-0.4,2-0.6,3.1-0.6c1.1,0,2.1,0.2,3,0.5s1.8,0.9,2.5,1.5c0.7,0.7,1.3,1.4,1.7,2.3s0.7,1.9,0.7,2.9h-5.7c-0.3-1.4-1-2.1-2.3-2.1
		c-0.6,0-1.2,0.2-1.6,0.6c-0.4,0.4-0.6,0.9-0.6,1.4c0,0.5,0.2,1,0.5,1.3c0.4,0.3,1,0.6,1.9,0.9l1.6,0.5c1.1,0.4,1.9,0.7,2.6,1
		c0.7,0.3,1.3,0.7,1.8,1.1c1.5,1.3,2.3,3,2.3,5.1c0,1.2-0.2,2.2-0.7,3.3c-0.5,1-1.1,1.9-1.9,2.7s-1.7,1.4-2.8,1.8
		c-1.1,0.4-2.2,0.7-3.4,0.7c-1.6,0-3.1-0.4-4.5-1.2c-1.4-0.8-2.4-1.9-3.1-3.2c-0.3-0.6-0.5-1.1-0.6-1.6c-0.1-0.5-0.2-1.3-0.3-2.3
		H309.1z"/>
</g>
<g>
	<path class="st0" d="M175.1,18.6c-0.9,3.7-1.8,7.5-2.7,11.1c-0.1-0.1-0.1-0.2-0.2-0.3c-0.9-3.5-1.9-7.1-2.8-10.6
		c-0.1-0.2-0.1-0.3-0.4-0.3c-1.4,0-2.6,0-4,0c-0.3,0-0.4,0.1-0.4,0.3c-0.8,3.2-1.6,6.4-2.5,9.5c-0.1,0.5-0.3,0.9-0.4,1.4
		c0-0.1-0.1-0.1-0.1-0.2c-0.1-0.4-0.2-0.7-0.3-1.2c-0.8-3.2-1.5-6.5-2.3-9.6c-0.1-0.2-0.2-0.3-0.4-0.3h-10.4v1.9
		c-0.1-0.1-0.1-0.1-0.1-0.1c-0.5-0.8-1.4-1.5-2.3-1.9c-1.5-0.5-3-0.7-4.5-0.5c-2.2,0.4-4.2,1.5-5.5,3.4c-1.7,2.4-2.4,5.4-1.7,8.2
		c0.1,0.5,0.3,1,0.4,1.5h-6.6V12.6c-0.1,0.1-0.1,0.1-0.2,0.1c-1.9,1.3-3.8,2.6-5.8,3.9c-0.1,0.1-0.2,0.2-0.2,0.4v19.3
		c0,0.1,0,0.2,0,0.3h13.5v-3.7l0.1,0.1c0,0.1,0.1,0.1,0.1,0.2c1.2,2,3.1,3.4,5.4,3.9c0.5,0.1,0.9,0.2,1.4,0.3h1.7
		c0.3-0.1,0.5-0.1,0.9-0.2c1.2-0.2,2.2-0.7,3-1.5c0.2-0.3,0.4-0.5,0.6-0.8v2h5c0.4,0,0.4,0,0.4-0.4V19.9c0.1,0.1,0.1,0.1,0.1,0.2
		c1.6,5.4,3.4,10.8,5,16.2l0,0c0,0.2,0.2,0.3,0.4,0.3c1.5,0,3,0,4.5,0c0.2,0,0.3-0.1,0.4-0.3c0.9-3.4,1.7-6.8,2.6-10.2
		c0.1-0.4,0.2-0.8,0.4-1.3c0.1,0.2,0.1,0.2,0.1,0.3c1,3.7,1.9,7.5,2.9,11.2c0.1,0.3,0.2,0.3,0.4,0.3h4.7c1.8-6,3.6-12,5.5-18
		L175.1,18.6L175.1,18.6z M143.9,32.2c-0.1,0-0.1,0-0.2,0c-2.5-0.1-4.4-2.1-4.3-4.5c0-0.1,0-0.1,0-0.2c0-2.5,1.9-4.4,4.4-4.5h0.1
		c0.1,0,0.2,0,0.4,0c2.5,0.1,4.3,2.2,4.2,4.5c0,0.1,0,0.3,0,0.4C148.3,30.4,146.3,32.3,143.9,32.2z"/>
	<path class="st0" d="M119,25.5v-2.1c-0.5,0-0.9,0-1.4,0.1c-1.4,0-2.5,1.2-2.5,2.5c0,0.4,0,0.6-0.1,1c-0.5,0-0.8,0-1.2,0
		c-0.2,0-0.4,0.1-0.5,0.2c-0.3,0.3-0.5,0.5-0.8,0.7c0,0,0,0-0.1-0.1c-2.1-2-5.5-1.8-7.4,0.3c-1.6,1.9-1.7,4.6-0.3,6.6
		c1,1.3,2.5,2,4.1,2c0.8,0,1.6-0.2,2.5-0.5c1.1-0.5,1.9-1.5,2.4-2.6c0.6-1.5,0.5-3.4-0.4-4.7h1.8v7.6h2.2v-7.7h1.6V27h-1.5
		c-0.1-0.4,0-0.7,0.2-1C117.9,25.5,118.5,25.6,119,25.5z M110.7,34.1c-0.4,0.3-0.8,0.5-1.3,0.5c-1.5,0.2-2.9-0.8-3.1-2.4
		c-0.3-1.1,0.2-2.3,1.1-2.9l0,0c0.5-0.4,1-0.5,1.5-0.5c0.5,0,0.9,0.1,1.3,0.3c0.9,0.4,1.5,1.2,1.5,2.2c0,0.2,0,0.4,0,0.6
		C111.8,32.7,111.4,33.5,110.7,34.1z"/>
	<path class="st0" d="M113.2,25.5c-0.7,0-1.5,0-2.3,0c0.3-0.6,0.5-1.2,0.7-1.8c0.3-0.6,0.5-1.3,0.8-1.9c0-0.1,0.1-0.3,0-0.4
		c-0.8-2.1-1.7-4.3-2.5-6.4c0-0.2-0.2-0.3-0.4-0.3c-0.5,0-1.1,0-1.6,0v7.7h-2.4V15h-2.1v7.6h-2.3v-9.7h4.1c0.2,0,0.3-0.1,0.3-0.3
		c0-0.5,0-0.8,0-1.3c0-0.1,0-0.2,0.1-0.3c0.7-0.5,1.5-1.1,2.3-1.7v3.5h0.6c0.9,0,1.8,0,2.7,0c0.2,0,0.4,0.1,0.4,0.3
		c0.6,1.9,1.4,3.8,2,5.7c0,0.1,0.1,0.1,0.1,0.2c0.1-0.1,0.1-0.2,0.1-0.3c0.7-1.9,1.5-3.7,2.1-5.6c0-0.2,0.2-0.3,0.4-0.3
		c0.7,0,1.4,0,2.1,0c0.1,0,0.2,0,0.3,0c-0.2,0.5-0.5,1-0.6,1.5c-1.5,3.6-3.2,7.3-4.7,10.9C113.5,25.5,113.4,25.5,113.2,25.5
		L113.2,25.5z"/>
	<path class="st0" d="M94.2,21.4c-0.3-0.5-0.5-1.1-0.5-1.7c0.1,0,0.2,0,0.3,0c0.5,0,1.2,0,1.7,0c0.2,0,0.4,0.1,0.5,0.3l0,0
		c0.1,0.6,0.7,1,1.4,0.9l0,0c0.4,0,0.7-0.4,0.8-0.7c0.1-0.4-0.1-0.8-0.5-0.9c-0.5-0.3-1.1-0.5-1.6-0.6c-0.8-0.2-1.5-0.7-1.9-1.5
		c-0.7-1.4-0.2-3.2,1.2-3.9c0.1,0,0.2-0.1,0.3-0.1c1.5-0.6,3.1-0.3,4,1c0.3,0.5,0.5,1,0.5,1.5c-0.7,0-1.5,0-2.1,0
		c-0.1,0-0.1-0.1-0.2-0.2c-0.1-0.5-0.6-0.6-1.1-0.5h-0.1c-0.3,0.1-0.5,0.4-0.5,0.7c0,0.3,0.2,0.5,0.5,0.6c0.5,0.2,1,0.4,1.5,0.5
		c0.6,0.2,1.3,0.5,1.7,1s0.6,1.1,0.6,1.8c0,1.5-1,2.8-2.5,3.2c-0.4,0.1-0.6,0.1-1,0.1C96,23,94.8,22.4,94.2,21.4L94.2,21.4z"/>
	<path class="st0" d="M47.4,21.5c-0.7-0.6-1.2-1.5-1.3-2.5C46,18.5,46,18,46,17.5c0-2,0-4,0-5.9c0-0.2,0.1-0.5,0.3-0.5
		c0.7-0.5,1.5-1.1,2.2-1.6v0.4c0,2.6,0,5.4,0,8c-0.1,0.9,0.4,1.9,1.2,2.4c1.2,0.6,2.6,0.5,3.6-0.5c0.5-0.5,0.7-1.3,0.6-2
		c0-2.1,0-4.2,0-6.4c0-0.2,0.1-0.4,0.2-0.4c0.7-0.5,1.5-1,2.3-1.5c0,0.1,0,0.2,0,0.3c0,2.9,0,5.8,0,8.6c0,1.5-0.7,2.9-2.1,3.6
		c-0.9,0.5-2,0.8-3,0.8C49.8,22.9,48.5,22.4,47.4,21.5L47.4,21.5z"/>
	<path class="st0" d="M83.4,22.8c-2.8-0.1-4.9-2.5-4.8-5.3c0,0,0,0,0-0.1c0.3-3.2,2.6-5.3,5.5-4.9c2.8,0.4,4.9,2.9,4.5,5.7v0.1h-7.5
		c0.2-0.2,0.4-0.4,0.5-0.5l1.3-1.3c0.6,0,1.2,0,1.8,0h1.5c-0.2-1-1-1.8-2-2c-1.5-0.4-3,0.5-3.4,2.1c0,0.1-0.1,0.3-0.1,0.4
		c-0.3,1,0,2.1,0.7,2.8c0.6,0.5,1.5,0.9,2.3,0.7c0.8,0,1.6-0.5,2.1-1.1c0-0.1,0.1-0.1,0.2-0.1h2.3c-0.7,2-2.6,3.4-4.7,3.4
		C83.5,22.8,83.4,22.8,83.4,22.8L83.4,22.8z"/>
	<path class="st0" d="M37.4,22.8c-2.3-0.3-4.2-2-4.5-4.3c-0.5-2.7,1.3-5.4,4.1-6c2.7-0.5,5.4,1.2,5.9,3.9c0.1,0.5,0.2,1.1,0.2,1.6
		c0,0.2,0,0.3-0.3,0.3h-7.1h-0.1c0.5-0.5,1.1-1.1,1.6-1.6c0.1-0.1,0.2-0.1,0.3-0.1h3c-0.1-0.5-0.4-1-0.8-1.5c-1.2-1-3-0.8-4,0.4
		c-0.3,0.4-0.5,0.7-0.6,1.2c-0.2,0.7-0.1,1.5,0.2,2.3c0.3,0.8,0.9,1.4,1.7,1.5c0.9,0.3,2,0.1,2.7-0.5c0.1-0.1,0.2-0.1,0.2-0.2
		c0.2-0.4,0.5-0.4,0.8-0.4c0.6,0,1.3,0,2,0c-0.2,0.5-0.5,0.8-0.7,1.3c-0.9,1.4-2.5,2.1-4.1,2.1C37.7,22.8,37.5,22.8,37.4,22.8
		L37.4,22.8z"/>
	<rect x="67" y="12.9" class="st0" width="2.2" height="9.7"/>
	<path class="st0" d="M63.8,22.6v-0.3c0-1.5,0-2.9,0-4.4c0-0.5-0.1-1.1-0.2-1.5c-0.1-0.9-1-1.6-1.9-1.5c-0.1,0-0.2,0-0.3,0.1
		c-1,0.1-1.7,0.9-1.7,1.9c-0.1,0.5-0.1,1.1-0.1,1.6c0,1.4,0,2.7,0,4.2h-2.2c0-0.1,0-0.2,0-0.3v-7.7c0-0.2,0.1-0.3,0.2-0.4
		c0.6-0.5,1.3-0.9,1.8-1.4c0,0,0.1-0.1,0.2-0.1v1c0.1,0,0.1-0.1,0.1-0.1c0.7-0.9,1.9-1.3,3-1.1c1.5,0.1,2.8,1.3,3.2,2.8
		c0.1,0.5,0.2,1,0.2,1.5c0,1.8,0,3.5,0,5.4c0,0.1,0,0.1,0,0.2H63.8z"/>
	<path class="st0" d="M18.1,22.4c0-3.4,0-6.6,0-10V12h-4.7c0.1-0.1,0.1-0.2,0.2-0.2c0.6-0.6,1.3-1.3,1.9-1.9
		c0.1-0.1,0.2-0.2,0.4-0.2c3.3,0,6.5,0,9.9,0c0.1,0,0.2,0,0.3,0V14c0.4-0.5,0.8-0.8,1.4-1c1.8-0.8,4,0.1,4.7,1.9
		c0.1,0.3,0.2,0.6,0.3,0.9c0.1,0.5,0.1,0.8,0.1,1.3c0,1.8,0,3.5,0,5.4c0,0.1,0,0.1,0,0.2h-2.3v-5.2c0-0.5-0.1-1.1-0.3-1.5
		c-0.4-0.5-1-1-1.6-1c-0.3,0-0.6,0-0.9,0.1c-0.6,0.2-1.1,0.6-1.2,1.3c-0.2,0.7-0.3,1.5-0.3,2.2c0,1.3,0,2.5,0,3.8v0.3h-2.2V12h-3.1
		v10.6c-0.1,0-0.2,0-0.3,0c-0.6,0-1.3,0-2,0C18.2,22.6,18.1,22.5,18.1,22.4L18.1,22.4z"/>
	<path class="st0" d="M75,22.6c-0.5,0-0.8,0-1.3,0c-0.2,0-0.3-0.1-0.3-0.2c-1.3-3.1-2.5-6.2-3.7-9.3c0-0.1-0.1-0.2-0.1-0.2
		c0.8,0,1.6,0,2.4,0c0.1,0,0.2,0.1,0.2,0.2c0.5,1.3,1,2.6,1.5,3.9c0.3,0.7,0.5,1.5,0.8,2.2c0,0,0,0.1,0.1,0.2l0.5-1.4
		c0.5-1.6,1.1-3.3,1.7-4.9c0.1-0.2,0.1-0.3,0.3-0.3c0.7,0,1.5,0,2.4,0c-0.2,0.5-0.4,1-0.6,1.5c-1.1,2.6-2.2,5.4-3.3,8
		C75.4,22.5,75.2,22.6,75,22.6L75,22.6L75,22.6z"/>
	<path class="st0" d="M89.5,22.6v-9.7h2.1v1l0.1-0.1c0.5-0.6,1.3-1,2.1-0.9h0.9c-0.5,0.7-0.9,1.5-1.4,2.2c0,0.1-0.1,0.1-0.2,0.1
		c-0.8,0.1-1.5,0.9-1.4,1.7l0,0v5.6L89.5,22.6z"/>
	<rect x="101.4" y="10.6" class="st0" width="2.2" height="1.5"/>
	<rect x="67" y="10.6" class="st0" width="2.2" height="1.5"/>
</g>
</svg>
